<?xml version="1.0" standalone="no"?>
<!DOCTYPE svg PUBLIC "-//W3C//DTD SVG 20010904//EN"
 "http://www.w3.org/TR/2001/REC-SVG-20010904/DTD/svg10.dtd">
<svg version="1.0" xmlns="http://www.w3.org/2000/svg"
 width="950.000000pt" height="400.000000pt" viewBox="0 0 950.000000 400.000000"
 preserveAspectRatio="xMidYMid meet">

<g transform="translate(0.000000,400.000000) scale(0.100000,-0.100000)"
fill="#fff" stroke="none">
<path d="M1812 3989 c-904 -89 -1625 -762 -1783 -1664 -32 -185 -32 -465 0
-650 75 -424 262 -787 560 -1086 297 -297 656 -482 1081 -560 119 -22 153 -23
733 -27 432 -2 629 0 677 8 214 36 378 204 411 420 37 240 -112 472 -356 551
-30 9 -195 14 -665 19 -594 6 -629 8 -705 28 -381 101 -653 379 -741 757 -26
110 -26 320 0 430 90 385 376 671 761 761 76 18 142 19 1215 19 1073 0 1139
-1 1215 -19 329 -76 592 -301 713 -607 40 -102 61 -199 72 -342 5 -67 15 -140
21 -162 67 -236 309 -393 549 -356 164 25 306 128 374 271 45 94 60 187 52
325 -45 791 -536 1469 -1275 1759 -111 44 -235 79 -386 108 -108 21 -127 22
-1275 24 -641 1 -1202 -2 -1248 -7z"/>
<path d="M6394 3986 c-201 -45 -353 -210 -385 -416 -37 -240 112 -472 356
-551 30 -9 195 -14 665 -19 594 -6 629 -8 705 -28 381 -101 653 -379 741 -757
14 -57 19 -118 19 -215 0 -97 -5 -158 -19 -215 -90 -385 -376 -671 -761 -761
-76 -18 -142 -19 -1215 -19 -1073 0 -1139 1 -1215 19 -329 76 -592 301 -713
607 -40 102 -61 199 -72 342 -11 139 -20 178 -62 261 -91 180 -314 291 -515
257 -214 -37 -377 -200 -414 -414 -22 -130 3 -371 60 -592 178 -684 730 -1236
1415 -1416 255 -66 197 -64 1516 -64 l1195 0 130 23 c429 78 787 263 1086 561
298 299 485 662 560 1086 32 185 32 465 0 650 -75 424 -262 787 -560 1086
-297 297 -655 482 -1081 560 -120 22 -149 23 -750 25 -499 3 -637 0 -686 -10z"/>
</g>
</svg>
